<?xml version="1.0" encoding="UTF-8"?><svg id="Layer_1" xmlns="http://www.w3.org/2000/svg" width="504" height="504" viewBox="0 0 504 504"><defs><style>.cls-1{fill:#c48618;}.cls-1,.cls-2{stroke:#6a4800;stroke-miterlimit:10;}.cls-2{fill:#490d0d;}.cls-3{fill:#efedea;stroke-width:0px;}</style></defs><circle class="cls-2" cx="252" cy="252" r="251.5"/><path class="cls-1" d="M487,251.46v.29c0,11.8-.88,23.39-2.59,34.71-1.09,7.28-2.53,14.46-4.29,21.5-1.05,4.21-2.22,8.38-3.5,12.5-3.65,11.76-8.22,23.12-13.62,34-4.95,9.97-10.6,19.53-16.88,28.62-1.73,2.5-3.5,4.96-5.32,7.38-8.58,11.42-18.18,22.02-28.68,31.66-1.6,1.47-3.22,2.92-4.86,4.34-9.71,8.42-20.12,16.05-31.14,22.78-6.67,4.08-13.57,7.83-20.66,11.22-5.01,2.4-10.13,4.63-15.34,6.66-10.95,4.3-22.31,7.78-34,10.38-11.05,2.45-22.41,4.12-34,4.93v-47.38c11.67-.81,23.03-2.7,34-5.58,3.47-.9,6.9-1.9,10.28-3.01,8.17-2.66,16.09-5.87,23.72-9.61,12.92-6.3,24.99-14.08,36-23.12,1.31-1.07,2.61-2.16,3.89-3.27,12.16-10.55,22.92-22.65,31.98-36h.13v-.19c7.13-10.55,13.2-21.87,18.05-33.81,4.42-10.86,7.83-22.23,10.11-34,2.21-11.33,3.37-23.03,3.4-35h-171.56v-36h168.12c-2.29-11.77-5.71-23.14-10.14-34-4.84-11.87-10.88-23.13-17.98-33.62v-.38h-.26c-8.69-12.78-18.94-24.42-30.49-34.62-1.72-1.53-3.47-3.02-5.25-4.47-11.01-9.03-23.08-16.81-36-23.12-6.51-3.19-13.24-6-20.16-8.41-4.54-1.58-9.15-2.99-13.84-4.21-10.97-2.88-22.33-4.77-34-5.58V21.07c11.59.81,22.95,2.48,34,4.93,11.69,2.6,23.05,6.08,34,10.38,5.07,1.98,10.04,4.14,14.92,6.46,7.24,3.45,14.28,7.26,21.08,11.42,10.93,6.67,21.27,14.23,30.91,22.58,1.72,1.49,3.42,3,5.09,4.54,10.44,9.58,19.99,20.12,28.52,31.46,1.88,2.49,3.7,5.01,5.48,7.58,5.95,8.61,11.33,17.64,16.08,27.04,5.51,10.87,10.17,22.23,13.92,34,1.48,4.63,2.81,9.33,4,14.08,1.63,6.53,2.99,13.18,4.05,19.92,1.85,11.73,2.81,23.75,2.83,36Z"/><path class="cls-1" d="M229.12,21.24v46.68c-12.42,1.49-24.46,4.21-36,8.04-.87.28-1.73.58-2.59.88-10.98,3.82-21.49,8.66-31.41,14.39-10.73,6.2-20.78,13.45-30.01,21.61h-3.99v3.63c-9.93,9.31-18.82,19.7-26.5,30.99-2.88,4.23-5.59,8.59-8.12,13.07-3.8,6.73-7.18,13.72-10.12,20.93-4.43,10.86-7.85,22.23-10.14,34h158.88v36H66.8c.03,11.97,1.19,23.67,3.4,35,2.28,11.77,5.69,23.14,10.11,34,2.95,7.28,6.36,14.33,10.19,21.11,2.49,4.41,5.16,8.71,7.99,12.89,7.71,11.36,16.65,21.81,26.63,31.17,1.75,1.64,3.53,3.25,5.35,4.83,8.85,7.67,18.44,14.52,28.65,20.42,10.7,6.18,22.08,11.31,34,15.26v.32h.96c11.25,3.66,22.96,6.27,35.04,7.72v48.08c-12.3-.98-24.32-2.92-36-5.75-11.71-2.83-23.07-6.56-34-11.11-3.75-1.55-7.44-3.2-11.08-4.94-7.9-3.78-15.55-7.99-22.92-12.62-10.19-6.38-19.84-13.53-28.88-21.38-1.94-1.68-3.86-3.4-5.74-5.15-10.16-9.42-19.46-19.75-27.8-30.85-2.85-3.79-5.58-7.68-8.2-11.65-5.14-7.8-9.82-15.93-14-24.35-5.4-10.88-9.97-22.24-13.62-34-2.6-8.37-4.74-16.94-6.38-25.68v-8.32h-1.41c-1.71-11.32-2.59-22.91-2.59-34.71v-.29c.02-12.25.98-24.27,2.83-36h1.17v-6.74c1.74-9.29,4.05-18.39,6.88-27.26,3.75-11.77,8.41-23.13,13.92-34,3.97-7.85,8.38-15.45,13.2-22.76,2.66-4.04,5.45-8,8.36-11.86,8.29-11.03,17.54-21.28,27.64-30.65,1.96-1.82,3.95-3.6,5.97-5.35,8.98-7.77,18.55-14.86,28.65-21.18,7.5-4.71,15.29-8.99,23.34-12.82,3.5-1.67,7.06-3.25,10.66-4.74,10.93-4.55,22.29-8.28,34-11.11,11.68-2.83,23.7-4.77,36-5.75Z"/><path class="cls-3" d="M144.67,283.86c2.4,0,4.22.28,5.47.83,1.25.55,2.35,1.17,3.31,1.84.58.34,1.04.59,1.4.76.36.17.71.25,1.04.25.48,0,.83-.26,1.04-.79.22-.53.4-1.32.54-2.38h1.66c-.05.82-.11,1.79-.18,2.92-.07,1.13-.12,2.62-.14,4.46-.03,1.85-.04,4.28-.04,7.31h-1.66c-.14-2.3-.65-4.51-1.51-6.62-.86-2.11-2.12-3.84-3.78-5.18s-3.83-2.02-6.52-2.02c-2.54,0-4.64.77-6.3,2.3s-2.48,3.55-2.48,6.05c0,2.16.55,3.97,1.66,5.44,1.1,1.46,2.58,2.79,4.43,3.96,1.85,1.18,3.85,2.44,6.01,3.78,2.5,1.54,4.72,3.06,6.66,4.57,1.95,1.51,3.48,3.18,4.61,5,1.13,1.82,1.69,4.03,1.69,6.62,0,3.07-.7,5.62-2.09,7.63-1.39,2.02-3.24,3.53-5.54,4.54s-4.85,1.51-7.63,1.51c-2.54,0-4.56-.29-6.05-.86-1.49-.58-2.76-1.17-3.82-1.8-1.06-.67-1.87-1.01-2.45-1.01-.48,0-.83.26-1.04.79-.22.53-.4,1.32-.54,2.38h-1.66c.1-1.01.16-2.2.18-3.56.02-1.37.05-3.16.07-5.36.02-2.21.04-4.99.04-8.35h1.66c.19,2.88.73,5.57,1.62,8.06.89,2.5,2.26,4.5,4.1,6.01s4.31,2.27,7.38,2.27c1.58,0,3.08-.32,4.5-.97,1.41-.65,2.58-1.68,3.49-3.1.91-1.42,1.37-3.25,1.37-5.51,0-1.97-.47-3.68-1.4-5.15-.94-1.46-2.24-2.83-3.92-4.1-1.68-1.27-3.65-2.58-5.9-3.92-2.26-1.39-4.37-2.81-6.34-4.25-1.97-1.44-3.54-3.11-4.71-5-1.18-1.9-1.76-4.19-1.76-6.88,0-2.83.64-5.17,1.91-7.02,1.27-1.85,2.94-3.21,5-4.1,2.06-.89,4.27-1.33,6.62-1.33Z"/><path class="cls-3" d="M178.65,297.76v44.21c0,2.06.61,3.44,1.84,4.14,1.22.7,2.92,1.04,5.08,1.04v1.51c-1.06-.05-2.52-.11-4.39-.18-1.87-.07-3.87-.11-5.98-.11-1.49,0-2.96.04-4.43.11-1.46.07-2.58.13-3.35.18v-1.51c1.73,0,2.95-.31,3.67-.94.72-.62,1.08-1.8,1.08-3.53v-36.29c0-2.16-.38-3.75-1.15-4.79-.77-1.03-2.21-1.55-4.32-1.55v-1.51c1.54.14,3.02.22,4.46.22s2.72-.08,4-.25c1.27-.17,2.44-.42,3.49-.76ZM190.17,297.54c2.54,0,4.82.68,6.84,2.05,2.02,1.37,3.61,3.37,4.79,6.01,1.18,2.64,1.76,5.9,1.76,9.79,0,2.59-.31,5.15-.94,7.67-.62,2.52-1.6,4.8-2.92,6.84s-3.02,3.67-5.11,4.9c-2.09,1.22-4.6,1.84-7.52,1.84-2.26,0-4.21-.53-5.87-1.58-1.66-1.05-2.77-2.33-3.35-3.82l.72-1.01c.67,1.34,1.64,2.47,2.92,3.38,1.27.91,2.87,1.37,4.79,1.37,2.69,0,4.78-.84,6.26-2.52,1.49-1.68,2.53-3.92,3.13-6.73.6-2.81.9-5.92.9-9.32,0-3.84-.31-6.98-.94-9.43-.62-2.45-1.56-4.27-2.81-5.47-1.25-1.2-2.79-1.8-4.61-1.8-2.35,0-4.49.97-6.41,2.92-1.92,1.94-3.14,4.88-3.67,8.82l-.86-1.01c.53-4.08,1.98-7.25,4.36-9.5,2.38-2.26,5.22-3.38,8.53-3.38Z"/><path class="cls-3" d="M226.67,297.54c3.07,0,5.83.67,8.28,2.02,2.45,1.34,4.4,3.46,5.87,6.34s2.2,6.62,2.2,11.23-.73,8.34-2.2,11.2c-1.46,2.86-3.42,4.96-5.87,6.3-2.45,1.34-5.21,2.02-8.28,2.02s-5.77-.67-8.24-2.02c-2.47-1.34-4.44-3.44-5.9-6.3-1.46-2.86-2.2-6.59-2.2-11.2s.73-8.35,2.2-11.23c1.46-2.88,3.43-4.99,5.9-6.34,2.47-1.34,5.22-2.02,8.24-2.02ZM226.67,298.98c-2.74,0-4.98,1.42-6.73,4.25-1.75,2.83-2.63,7.46-2.63,13.9s.88,11.05,2.63,13.86c1.75,2.81,4,4.21,6.73,4.21s4.98-1.4,6.73-4.21c1.75-2.81,2.63-7.43,2.63-13.86s-.88-11.06-2.63-13.9c-1.75-2.83-4-4.25-6.73-4.25Z"/><path class="cls-3" d="M270.88,297.54c1.3,0,2.44.26,3.42.79.98.53,1.75,1.21,2.3,2.05.55.84.83,1.79.83,2.84,0,1.2-.37,2.26-1.12,3.17-.75.91-1.74,1.37-2.99,1.37-1.01,0-1.9-.32-2.66-.97-.77-.65-1.15-1.57-1.15-2.77,0-.91.25-1.69.76-2.34.5-.65,1.07-1.16,1.69-1.55-.34-.48-.84-.72-1.51-.72-1.49,0-2.86.44-4.1,1.33-1.25.89-2.3,2.03-3.17,3.42-.86,1.39-1.54,2.87-2.02,4.43-.48,1.56-.72,3.01-.72,4.36v15.26c0,2.35.68,3.92,2.05,4.72,1.37.79,3.23,1.19,5.58,1.19v1.51c-1.11-.05-2.66-.11-4.68-.18-2.02-.07-4.15-.11-6.41-.11-1.63,0-3.25.04-4.86.11-1.61.07-2.82.13-3.64.18v-1.51c1.97,0,3.37-.36,4.21-1.08s1.26-2.09,1.26-4.1v-22.54c0-2.16-.38-3.75-1.15-4.79-.77-1.03-2.21-1.55-4.32-1.55v-1.51c1.54.14,3.02.22,4.46.22s2.72-.08,4-.25c1.27-.17,2.44-.42,3.49-.76v9c.53-1.39,1.28-2.8,2.27-4.21.98-1.42,2.17-2.6,3.56-3.56,1.39-.96,2.93-1.44,4.61-1.44Z"/><path class="cls-3" d="M292.12,286.6v12.02h10.66v1.44h-10.66v27.86c0,2.26.41,3.84,1.22,4.75.82.91,1.94,1.37,3.38,1.37s2.69-.59,3.74-1.76c1.06-1.18,1.97-3.16,2.74-5.94l1.44.36c-.48,2.78-1.43,5.14-2.84,7.06s-3.59,2.88-6.52,2.88c-1.63,0-2.98-.2-4.03-.61-1.06-.41-1.99-1-2.81-1.76-1.06-1.1-1.79-2.42-2.2-3.96-.41-1.54-.61-3.58-.61-6.12v-24.12h-6.91v-1.44h6.91v-11.02c1.2-.05,2.35-.14,3.46-.29,1.1-.14,2.11-.38,3.02-.72Z"/><path class="cls-3" d="M317.97,297.76v31.18c0,2.02.42,3.38,1.26,4.1s2.24,1.08,4.21,1.08v1.51c-.82-.05-2.05-.11-3.71-.18-1.66-.07-3.32-.11-5-.11s-3.29.04-4.97.11c-1.68.07-2.93.13-3.74.18v-1.51c1.97,0,3.37-.36,4.21-1.08s1.26-2.09,1.26-4.1v-22.54c0-2.16-.38-3.75-1.15-4.79-.77-1.03-2.21-1.55-4.32-1.55v-1.51c1.54.14,3.02.22,4.46.22s2.72-.08,4-.25c1.27-.17,2.44-.42,3.49-.76ZM314.22,280.55c1.25,0,2.33.46,3.24,1.37.91.91,1.37,1.99,1.37,3.24s-.46,2.33-1.37,3.24c-.91.91-1.99,1.37-3.24,1.37s-2.33-.46-3.24-1.37c-.91-.91-1.37-1.99-1.37-3.24s.46-2.33,1.37-3.24c.91-.91,1.99-1.37,3.24-1.37Z"/><path class="cls-3" d="M344.89,279.33c1.34,0,2.53.18,3.56.54,1.03.36,1.93.83,2.7,1.4.72.58,1.27,1.25,1.66,2.02.38.77.58,1.58.58,2.45,0,1.11-.36,2.02-1.08,2.74-.72.72-1.63,1.08-2.74,1.08s-1.98-.35-2.77-1.04c-.79-.7-1.19-1.64-1.19-2.84,0-1.01.28-1.82.83-2.45.55-.62,1.28-1.03,2.2-1.22-.14-.43-.52-.8-1.12-1.12-.6-.31-1.4-.47-2.41-.47-1.1,0-2.05.24-2.84.72-.79.48-1.4,1.13-1.84,1.94-.58,1.01-.94,2.51-1.08,4.5-.14,1.99-.22,5.05-.22,9.18v1.87h7.7v1.44h-7.7v28.15c0,2.35.68,3.92,2.05,4.72s3.23,1.19,5.58,1.19v1.51c-1.1-.05-2.66-.11-4.68-.18-2.02-.07-4.15-.11-6.41-.11-1.63,0-3.25.04-4.86.11-1.61.07-2.82.13-3.64.18v-1.51c1.97,0,3.37-.36,4.21-1.08s1.26-2.09,1.26-4.1v-28.87h-5.76v-1.44h5.76c0-2.83.12-5.21.36-7.13.24-1.92.62-3.56,1.15-4.93.53-1.37,1.25-2.58,2.16-3.64.96-1.1,2.18-1.98,3.67-2.63s3.12-.97,4.9-.97Z"/><path class="cls-3" d="M384.49,298.55v1.44c-.91.1-1.75.5-2.52,1.22s-1.49,1.99-2.16,3.82l-11.81,30.96h-1.22l-13.25-31.9c-.91-1.87-1.81-3.01-2.7-3.42-.89-.41-1.62-.61-2.2-.61v-1.51c1.06.14,2.16.25,3.31.32s2.4.11,3.74.11c1.49,0,3.06-.05,4.72-.14,1.66-.1,3.2-.19,4.64-.29v1.51c-1.2,0-2.27.08-3.2.25-.94.17-1.53.67-1.76,1.51-.24.84.05,2.27.86,4.28l8.86,21.96-.43.14,8.21-21.46c.62-1.58.88-2.84.76-3.78-.12-.94-.61-1.64-1.48-2.12-.86-.48-2.16-.77-3.89-.86v-1.44c.87.05,1.61.08,2.23.11.62.02,1.24.05,1.84.07.6.03,1.26.04,1.98.04,1.1,0,2.1-.02,2.99-.07.89-.05,1.71-.1,2.48-.14ZM368.01,335.99l-2.45,6.26c-.48,1.2-.97,2.21-1.48,3.02-.5.82-1.04,1.49-1.62,2.02-.77.72-1.68,1.21-2.74,1.48-1.06.26-2.02.4-2.88.4-.91,0-1.74-.17-2.48-.5-.74-.34-1.33-.83-1.76-1.48-.43-.65-.65-1.43-.65-2.34,0-1.15.34-2.08,1.01-2.77.67-.7,1.61-1.04,2.81-1.04,1.01,0,1.87.29,2.59.86.72.58,1.08,1.42,1.08,2.52,0,.82-.19,1.49-.58,2.02-.38.53-.84.94-1.37,1.22.1.05.18.07.25.07h.18c1.29,0,2.45-.44,3.46-1.33,1.01-.89,1.9-2.32,2.66-4.28l2.59-6.7,1.37.58Z"/></svg>